<svg xmlns="http://www.w3.org/2000/svg" viewBox="0 0 128 128"><path fill="#2e001e" d="M50.5 0h27C107.8 0 128 20.2 128 50.5v27c0 30.3-20.2 50.5-50.5 50.5h-27C20.2 128 0 107.8 0 77.5v-27C0 20.2 20.2 0 50.5 0z"/><path fill="#ff2bc2" d="M50.5 0h27C107.8 0 128 20.2 128 50.5v27c0 30.3-20.2 50.5-50.5 50.5h-27C20.2 128 0 107.8 0 77.5v-27C0 20.2 20.2 0 50.5 0z"/><path fill="#2e001e" d="M76.7 77.9c-.6-1.5-1.2-3.1-1.8-4.6-.9-2.5-1.9-4.9-2.8-7.4-1-2.4-1.9-4.9-2.8-7.3-.9-2.3-1.8-4.6-2.6-6.9-.1-.2-.1-.3-.2-.5-.5.9-1 1.9-1.4 2.8-.6 1.4-1.2 2.9-1.8 4.3-.6 1.5-1.2 3-1.8 4.5-.6 1.5-1.2 3.1-1.8 4.6-.6 1.6-1.3 3.1-1.9 4.7-.6 1.5-1.2 3.1-1.8 4.6-.6 1.6-1.3 3.2-1.9 4.8-.6 1.5-1.2 3.1-1.8 4.6-.1.2-.1.3-.2.5h7.5c.5-1.5 1.1-3 1.6-4.5.5-1.4 1-2.7 1.5-4.1h11.5c.5 1.4 1 2.7 1.5 4.1.5 1.5 1.1 3 1.6 4.5h7.5c-.1-.2-.1-.3-.2-.5-.4-1.5-1-3.1-1.7-4.7zm-13.1-7.6h-7.7c1.3-3.5 2.6-7 3.9-10.5 1.3 3.5 2.6 7 3.8 10.5zM90.8 50c-3.1 0-5.8.7-8 2.2-2.2 1.5-3.9 3.4-5.1 5.8h-.1v-7h-6.7v35.2h7V70.9c0-1.7.2-3.3.6-4.7.4-1.4 1-2.6 1.8-3.6.8-1 1.8-1.7 2.9-2.3 1.1-.5 2.4-.8 3.9-.8 2.1 0 3.7.6 4.9 1.8 1.2 1.2 1.8 3.2 1.8 6v18.9h7V67.4c0-2.5-.4-4.6-1.1-6.3-.7-1.7-1.7-3.1-3-4.2-1.3-1.1-2.7-1.9-4.4-2.4-1.7-.5-3.5-.5-5.5-.5z"/></svg>
