<svg xmlns="http://www.w3.org/2000/svg" viewBox="0 0 128 128"><path fill="#fdb300" d="M29.62 12.6h68.76L64 116.4 29.62 12.6z"/><path fill="#ea6c00" d="M64 116.4L14.92 43.13 29.62 12.6 64 116.4z"/><path fill="#ea6c00" d="M64 116.4l49.08-73.27L113.08 12.6 64 116.4z"/><path fill="#fdad00" d="M14.92 43.13h98.16L64 116.4 14.92 43.13z"/><path fill="#fdd231" d="M29.62 12.6h68.76L98.16 43.13H29.62V12.6z"/><path fill="#fdad00" d="M64 12.6h34.38L98.16 43.13H64V12.6z"/><path fill="#feeeb7" d="M29.62 12.6L14.92 43.13h14.7V12.6z"/><path fill="#fdad00" d="M64 12.6H29.62v30.53H64V12.6z"/><path fill="#feeeb7" d="M98.16 43.13h14.92L113.08 12.6H98.16v30.53z"/></svg>
