<svg width="100" height="100" viewBox="0 0 100 100" xmlns="http://www.w3.org/2000/svg">
  <defs>
    <pattern id="circuit" x="0" y="0" width="100" height="100" patternUnits="userSpaceOnUse">
      <rect width="100" height="100" fill="#0f172a"/>
      <path d="M10 10h20v20H10z M40 10h20v20H40z M70 10h20v20H70z M10 40h20v20H10z M40 40h20v20H40z M70 40h20v20H70z M10 70h20v20H10z M40 70h20v20H40z M70 70h20v20H70z" fill="none" stroke="#4f46e5" stroke-width="0.5" opacity="0.2"/>
      <path d="M0 20h100 M0 50h100 M0 80h100 M20 0v100 M50 0v100 M80 0v100" stroke="#6366f1" stroke-width="0.3" opacity="0.1"/>
      <circle cx="20" cy="20" r="2" fill="#4f46e5" opacity="0.3"/>
      <circle cx="50" cy="20" r="2" fill="#4f46e5" opacity="0.3"/>
      <circle cx="80" cy="20" r="2" fill="#4f46e5" opacity="0.3"/>
      <circle cx="20" cy="50" r="2" fill="#4f46e5" opacity="0.3"/>
      <circle cx="50" cy="50" r="2" fill="#4f46e5" opacity="0.3"/>
      <circle cx="80" cy="50" r="2" fill="#4f46e5" opacity="0.3"/>
      <circle cx="20" cy="80" r="2" fill="#4f46e5" opacity="0.3"/>
      <circle cx="50" cy="80" r="2" fill="#4f46e5" opacity="0.3"/>
      <circle cx="80" cy="80" r="2" fill="#4f46e5" opacity="0.3"/>
    </pattern>
  </defs>
  <rect width="100" height="100" fill="url(#circuit)"/>
</svg>
