<svg width="100" height="100" viewBox="0 0 100 100" xmlns="http://www.w3.org/2000/svg">
  <defs>
    <linearGradient id="cyber-gradient" x1="0%" y1="0%" x2="100%" y2="100%">
      <stop offset="0%" stop-color="#4f46e5" stop-opacity="0.1"/>
      <stop offset="100%" stop-color="#6366f1" stop-opacity="0.1"/>
    </linearGradient>
    <pattern id="cyber" x="0" y="0" width="100" height="100" patternUnits="userSpaceOnUse">
      <rect width="100" height="100" fill="url(#cyber-gradient)"/>
      <path d="M0 20 L100 20 M0 40 L100 40 M0 60 L100 60 M0 80 L100 80" stroke="#6366f1" stroke-width="0.2" opacity="0.2"/>
      <path d="M20 0 L20 100 M40 0 L40 100 M60 0 L60 100 M80 0 L80 100" stroke="#6366f1" stroke-width="0.2" opacity="0.2"/>
      <circle cx="20" cy="20" r="1" fill="#4f46e5" opacity="0.5"/>
      <circle cx="40" cy="20" r="1" fill="#4f46e5" opacity="0.5"/>
      <circle cx="60" cy="20" r="1" fill="#4f46e5" opacity="0.5"/>
      <circle cx="80" cy="20" r="1" fill="#4f46e5" opacity="0.5"/>
      <circle cx="20" cy="40" r="1" fill="#4f46e5" opacity="0.5"/>
      <circle cx="40" cy="40" r="1" fill="#4f46e5" opacity="0.5"/>
      <circle cx="60" cy="40" r="1" fill="#4f46e5" opacity="0.5"/>
      <circle cx="80" cy="40" r="1" fill="#4f46e5" opacity="0.5"/>
      <circle cx="20" cy="60" r="1" fill="#4f46e5" opacity="0.5"/>
      <circle cx="40" cy="60" r="1" fill="#4f46e5" opacity="0.5"/>
      <circle cx="60" cy="60" r="1" fill="#4f46e5" opacity="0.5"/>
      <circle cx="80" cy="60" r="1" fill="#4f46e5" opacity="0.5"/>
      <circle cx="20" cy="80" r="1" fill="#4f46e5" opacity="0.5"/>
      <circle cx="40" cy="80" r="1" fill="#4f46e5" opacity="0.5"/>
      <circle cx="60" cy="80" r="1" fill="#4f46e5" opacity="0.5"/>
      <circle cx="80" cy="80" r="1" fill="#4f46e5" opacity="0.5"/>
    </pattern>
  </defs>
  <rect width="100" height="100" fill="url(#cyber)"/>
</svg>
