<svg width="1200" height="800" viewBox="0 0 1200 800" xmlns="http://www.w3.org/2000/svg">
  <defs>
    <linearGradient id="neon-gradient" x1="0%" y1="0%" x2="100%" y2="100%">
      <stop offset="0%" stop-color="#4338ca" stop-opacity="0.05"/>
      <stop offset="50%" stop-color="#6366f1" stop-opacity="0.1"/>
      <stop offset="100%" stop-color="#818cf8" stop-opacity="0.05"/>
    </linearGradient>
    <filter id="neon-glow" x="-50%" y="-50%" width="200%" height="200%">
      <feGaussianBlur stdDeviation="5" result="blur"/>
      <feComposite in="SourceGraphic" in2="blur" operator="over"/>
    </filter>
  </defs>
  
  <!-- Dark background -->
  <rect width="1200" height="800" fill="#0f172a"/>
  
  <!-- Gradient overlay -->
  <rect width="1200" height="800" fill="url(#neon-gradient)"/>
  
  <!-- Perspective grid -->
  <g opacity="0.2" filter="url(#neon-glow)">
    <!-- Horizontal lines -->
    <path d="M0,100 L1200,100" stroke="#818cf8" stroke-width="0.5"/>
    <path d="M0,200 L1200,200" stroke="#818cf8" stroke-width="0.5"/>
    <path d="M0,300 L1200,300" stroke="#818cf8" stroke-width="0.5"/>
    <path d="M0,400 L1200,400" stroke="#818cf8" stroke-width="0.5"/>
    <path d="M0,500 L1200,500" stroke="#818cf8" stroke-width="0.5"/>
    <path d="M0,600 L1200,600" stroke="#818cf8" stroke-width="0.5"/>
    <path d="M0,700 L1200,700" stroke="#818cf8" stroke-width="0.5"/>
    
    <!-- Vertical lines -->
    <path d="M100,0 L100,800" stroke="#818cf8" stroke-width="0.5"/>
    <path d="M200,0 L200,800" stroke="#818cf8" stroke-width="0.5"/>
    <path d="M300,0 L300,800" stroke="#818cf8" stroke-width="0.5"/>
    <path d="M400,0 L400,800" stroke="#818cf8" stroke-width="0.5"/>
    <path d="M500,0 L500,800" stroke="#818cf8" stroke-width="0.5"/>
    <path d="M600,0 L600,800" stroke="#818cf8" stroke-width="0.5"/>
    <path d="M700,0 L700,800" stroke="#818cf8" stroke-width="0.5"/>
    <path d="M800,0 L800,800" stroke="#818cf8" stroke-width="0.5"/>
    <path d="M900,0 L900,800" stroke="#818cf8" stroke-width="0.5"/>
    <path d="M1000,0 L1000,800" stroke="#818cf8" stroke-width="0.5"/>
    <path d="M1100,0 L1100,800" stroke="#818cf8" stroke-width="0.5"/>
  </g>
  
  <!-- Glowing intersections -->
  <g filter="url(#neon-glow)">
    <circle cx="100" cy="100" r="1" fill="#6366f1" opacity="0.8"/>
    <circle cx="200" cy="100" r="1" fill="#6366f1" opacity="0.8"/>
    <circle cx="300" cy="100" r="1" fill="#6366f1" opacity="0.8"/>
    <circle cx="400" cy="100" r="1" fill="#6366f1" opacity="0.8"/>
    <circle cx="500" cy="100" r="1" fill="#6366f1" opacity="0.8"/>
    <circle cx="600" cy="100" r="1" fill="#6366f1" opacity="0.8"/>
    <circle cx="700" cy="100" r="1" fill="#6366f1" opacity="0.8"/>
    <circle cx="800" cy="100" r="1" fill="#6366f1" opacity="0.8"/>
    <circle cx="900" cy="100" r="1" fill="#6366f1" opacity="0.8"/>
    <circle cx="1000" cy="100" r="1" fill="#6366f1" opacity="0.8"/>
    <circle cx="1100" cy="100" r="1" fill="#6366f1" opacity="0.8"/>
    
    <!-- Additional intersection points -->
    <circle cx="100" cy="400" r="2" fill="#6366f1" opacity="0.8"/>
    <circle cx="300" cy="400" r="2" fill="#6366f1" opacity="0.8"/>
    <circle cx="500" cy="400" r="2" fill="#6366f1" opacity="0.8"/>
    <circle cx="700" cy="400" r="2" fill="#6366f1" opacity="0.8"/>
    <circle cx="900" cy="400" r="2" fill="#6366f1" opacity="0.8"/>
    <circle cx="1100" cy="400" r="2" fill="#6366f1" opacity="0.8"/>
  </g>
  
  <!-- Horizon line with glow -->
  <path d="M0,400 L1200,400" stroke="#6366f1" stroke-width="1" opacity="0.5" filter="url(#neon-glow)"/>
</svg>
